<mxfile host="Electron" agent="Mozilla/5.0 (Windows NT 10.0; Win64; x64) AppleWebKit/537.36 (KHTML, like Gecko) draw.io/26.0.9 Chrome/128.0.6613.186 Electron/32.2.5 Safari/537.36" version="26.0.9">
  <diagram name="Page-1" id="74e2e168-ea6b-b213-b513-2b3c1d86103e">
    <mxGraphModel dx="2333" dy="1380" grid="1" gridSize="10" guides="1" tooltips="1" connect="1" arrows="1" fold="1" page="1" pageScale="1" pageWidth="1100" pageHeight="850" background="none" math="0" shadow="0">
      <root>
        <mxCell id="0" />
        <mxCell id="1" parent="0" />
        <mxCell id="hF90CGsqE_X16s34exra-1" style="edgeStyle=orthogonalEdgeStyle;rounded=0;orthogonalLoop=1;jettySize=auto;html=1;entryX=0.5;entryY=0;entryDx=0;entryDy=0;exitX=0.5;exitY=1;exitDx=0;exitDy=0;" edge="1" parent="1" source="hF90CGsqE_X16s34exra-3" target="hF90CGsqE_X16s34exra-11">
          <mxGeometry relative="1" as="geometry">
            <Array as="points">
              <mxPoint x="580" y="150" />
              <mxPoint x="855" y="150" />
            </Array>
          </mxGeometry>
        </mxCell>
        <mxCell id="hF90CGsqE_X16s34exra-3" value="&lt;font style=&quot;font-size: 27px;&quot;&gt;ZusammenhÃ¤nge/ Relationships&lt;/font&gt;" style="rounded=1;whiteSpace=wrap;html=1;sketch=1;curveFitting=1;jiggle=2;fillColor=#a0522d;fontColor=#33001A;strokeColor=#6D1F00;fontStyle=1" vertex="1" parent="1">
          <mxGeometry x="455" y="50" width="250" height="70" as="geometry" />
        </mxCell>
        <mxCell id="hF90CGsqE_X16s34exra-4" style="edgeStyle=orthogonalEdgeStyle;rounded=0;orthogonalLoop=1;jettySize=auto;html=1;exitX=0.5;exitY=1;exitDx=0;exitDy=0;entryX=0.5;entryY=0;entryDx=0;entryDy=0;" edge="1" parent="1" source="hF90CGsqE_X16s34exra-6" target="hF90CGsqE_X16s34exra-30">
          <mxGeometry relative="1" as="geometry">
            <mxPoint x="105" y="340" as="targetPoint" />
          </mxGeometry>
        </mxCell>
        <mxCell id="hF90CGsqE_X16s34exra-5" style="edgeStyle=orthogonalEdgeStyle;rounded=0;orthogonalLoop=1;jettySize=auto;html=1;entryX=0.5;entryY=0;entryDx=0;entryDy=0;" edge="1" parent="1" source="hF90CGsqE_X16s34exra-6" target="hF90CGsqE_X16s34exra-34">
          <mxGeometry relative="1" as="geometry">
            <mxPoint x="435" y="450" as="targetPoint" />
          </mxGeometry>
        </mxCell>
        <mxCell id="hF90CGsqE_X16s34exra-35" style="edgeStyle=orthogonalEdgeStyle;rounded=0;orthogonalLoop=1;jettySize=auto;html=1;entryX=0.5;entryY=0;entryDx=0;entryDy=0;" edge="1" parent="1" source="hF90CGsqE_X16s34exra-6" target="hF90CGsqE_X16s34exra-33">
          <mxGeometry relative="1" as="geometry" />
        </mxCell>
        <mxCell id="hF90CGsqE_X16s34exra-6" value="&lt;font style=&quot;font-size: 33px;&quot;&gt;2 Variables&lt;/font&gt;" style="ellipse;whiteSpace=wrap;html=1;sketch=1;curveFitting=1;jiggle=2;" vertex="1" parent="1">
          <mxGeometry x="140" y="170" width="360" height="110" as="geometry" />
        </mxCell>
        <mxCell id="hF90CGsqE_X16s34exra-38" style="edgeStyle=orthogonalEdgeStyle;rounded=0;orthogonalLoop=1;jettySize=auto;html=1;entryX=0.5;entryY=0;entryDx=0;entryDy=0;" edge="1" parent="1" source="hF90CGsqE_X16s34exra-11" target="hF90CGsqE_X16s34exra-37">
          <mxGeometry relative="1" as="geometry" />
        </mxCell>
        <mxCell id="hF90CGsqE_X16s34exra-11" value="&lt;font style=&quot;font-size: 33px;&quot;&gt;&amp;gt;&amp;nbsp;2 Variables&lt;/font&gt;" style="ellipse;whiteSpace=wrap;html=1;sketch=1;curveFitting=1;jiggle=2;" vertex="1" parent="1">
          <mxGeometry x="680" y="170" width="350" height="110" as="geometry" />
        </mxCell>
        <mxCell id="hF90CGsqE_X16s34exra-20" style="edgeStyle=orthogonalEdgeStyle;rounded=0;orthogonalLoop=1;jettySize=auto;html=1;entryX=0.5;entryY=0;entryDx=0;entryDy=0;exitX=0.5;exitY=1;exitDx=0;exitDy=0;" edge="1" parent="1" source="hF90CGsqE_X16s34exra-3" target="hF90CGsqE_X16s34exra-6">
          <mxGeometry relative="1" as="geometry">
            <Array as="points">
              <mxPoint x="580" y="150" />
              <mxPoint x="320" y="150" />
            </Array>
          </mxGeometry>
        </mxCell>
        <mxCell id="hF90CGsqE_X16s34exra-30" value="&lt;font style=&quot;font-size: 33px;&quot;&gt;Correlation&lt;/font&gt;" style="shape=hexagon;perimeter=hexagonPerimeter2;whiteSpace=wrap;html=1;fixedSize=1;sketch=1;curveFitting=1;jiggle=2;fillColor=#ffe6cc;strokeColor=#d79b00;" vertex="1" parent="1">
          <mxGeometry x="90" y="350" width="190" height="80" as="geometry" />
        </mxCell>
        <mxCell id="hF90CGsqE_X16s34exra-33" value="&lt;span style=&quot;font-size: 27px;&quot;&gt;Rang-Korrelation/ Rank-order-correlation&lt;/span&gt;" style="shape=hexagon;perimeter=hexagonPerimeter2;whiteSpace=wrap;html=1;fixedSize=1;sketch=1;curveFitting=1;jiggle=2;fillColor=#f8cecc;strokeColor=#b85450;" vertex="1" parent="1">
          <mxGeometry x="185" y="530" width="270" height="100" as="geometry" />
        </mxCell>
        <mxCell id="hF90CGsqE_X16s34exra-34" value="&lt;font style=&quot;font-size: 33px;&quot;&gt;Regression&lt;/font&gt;" style="shape=hexagon;perimeter=hexagonPerimeter2;whiteSpace=wrap;html=1;fixedSize=1;sketch=1;curveFitting=1;jiggle=2;fillColor=#ffe6cc;strokeColor=#d79b00;" vertex="1" parent="1">
          <mxGeometry x="340" y="350" width="190" height="80" as="geometry" />
        </mxCell>
        <mxCell id="hF90CGsqE_X16s34exra-36" value="&lt;span style=&quot;font-size: 27px;&quot;&gt;Logistische/ Logistic Regression&lt;/span&gt;" style="shape=hexagon;perimeter=hexagonPerimeter2;whiteSpace=wrap;html=1;fixedSize=1;sketch=1;curveFitting=1;jiggle=2;fillColor=#f8cecc;strokeColor=#b85450;" vertex="1" parent="1">
          <mxGeometry x="470" y="460" width="270" height="100" as="geometry" />
        </mxCell>
        <mxCell id="hF90CGsqE_X16s34exra-37" value="&lt;font style=&quot;font-size: 33px;&quot;&gt;multiple Regression&lt;/font&gt;" style="shape=hexagon;perimeter=hexagonPerimeter2;whiteSpace=wrap;html=1;fixedSize=1;sketch=1;curveFitting=1;jiggle=2;fillColor=#ffe6cc;strokeColor=#d79b00;" vertex="1" parent="1">
          <mxGeometry x="740" y="340" width="230" height="100" as="geometry" />
        </mxCell>
        <mxCell id="hF90CGsqE_X16s34exra-39" value="" style="endArrow=none;dashed=1;html=1;dashPattern=1 3;strokeWidth=2;rounded=0;entryX=1;entryY=0.5;entryDx=0;entryDy=0;exitX=0.5;exitY=0;exitDx=0;exitDy=0;" edge="1" parent="1" source="hF90CGsqE_X16s34exra-36" target="hF90CGsqE_X16s34exra-6">
          <mxGeometry width="50" height="50" relative="1" as="geometry">
            <mxPoint x="440" y="350" as="sourcePoint" />
            <mxPoint x="490" y="300" as="targetPoint" />
          </mxGeometry>
        </mxCell>
        <mxCell id="hF90CGsqE_X16s34exra-40" value="" style="endArrow=none;dashed=1;html=1;dashPattern=1 3;strokeWidth=2;rounded=0;entryX=0.5;entryY=0;entryDx=0;entryDy=0;exitX=0;exitY=0.5;exitDx=0;exitDy=0;" edge="1" parent="1" source="hF90CGsqE_X16s34exra-11" target="hF90CGsqE_X16s34exra-36">
          <mxGeometry width="50" height="50" relative="1" as="geometry">
            <mxPoint x="645" y="500" as="sourcePoint" />
            <mxPoint x="510" y="235" as="targetPoint" />
          </mxGeometry>
        </mxCell>
      </root>
    </mxGraphModel>
  </diagram>
</mxfile>
